HIERARCHY
ROOT Hips
{
	OFFSET -0.001795 -0.223333 0.028219
	CHANNELS 6 Xposition Yposition Zposition Zrotation Yrotation Xrotation 
	JOINT LeftUpLeg
	{
		OFFSET 0.069520 -0.091406 -0.006815
		CHANNELS 3 Zrotation Yrotation Xrotation
		JOINT LeftLeg
		{
			OFFSET 0.034277 -0.375199 -0.004496
			CHANNELS 3 Zrotation Yrotation Xrotation
			JOINT LeftFoot
			{
				OFFSET -0.013596 -0.397961 -0.043693
				CHANNELS 3 Zrotation Yrotation Xrotation
				JOINT LeftToe
				{
					OFFSET 0.026358 -0.055791 0.119288
					CHANNELS 3 Zrotation Yrotation Xrotation
					End Site
					{
						OFFSET 0.000000 0.000000 0.000000
					}
				}
			}
		}
	}
	JOINT RightUpLeg
	{
		OFFSET -0.067670 -0.090522 -0.004320
		CHANNELS 3 Zrotation Yrotation Xrotation
		JOINT RightLeg
		{
			OFFSET -0.038290 -0.382569 -0.008850
			CHANNELS 3 Zrotation Yrotation Xrotation
			JOINT RightFoot
			{
				OFFSET 0.015774 -0.398415 -0.042312
				CHANNELS 3 Zrotation Yrotation Xrotation
				JOINT RightToe
				{
					OFFSET -0.025372 -0.048144 0.123348
					CHANNELS 3 Zrotation Yrotation Xrotation
					End Site
					{
						OFFSET 0.000000 0.000000 0.000000
					}
				}
			}
		}
	}
	JOINT Spine
	{
		OFFSET -0.002533 0.108963 -0.026696
		CHANNELS 3 Zrotation Yrotation Xrotation
		JOINT Spine1
		{
			OFFSET 0.005487 0.135180 0.001092
			CHANNELS 3 Zrotation Yrotation Xrotation
			JOINT Spine2
			{
				OFFSET 0.001457 0.052922 0.025425
				CHANNELS 3 Zrotation Yrotation Xrotation
				JOINT Neck
				{
					OFFSET -0.002778 0.213870 -0.042857
					CHANNELS 3 Zrotation Yrotation Xrotation
					JOINT Head
					{
						OFFSET 0.005152 0.064970 0.051349
						CHANNELS 3 Zrotation Yrotation Xrotation
						End Site
						{
							OFFSET 0.000000 0.000000 0.000000
						}
					}
				}
				JOINT LeftShoulder
				{
					OFFSET 0.078845 0.121749 -0.034090
					CHANNELS 3 Zrotation Yrotation Xrotation
					JOINT LeftArm
					{
						OFFSET 0.090977 0.030469 -0.008868
						CHANNELS 3 Zrotation Yrotation Xrotation
						JOINT LeftForeArm
						{
							OFFSET 0.259612 -0.012772 -0.027456
							CHANNELS 3 Zrotation Yrotation Xrotation
							JOINT LeftHand
							{
								OFFSET 0.249234 0.008986 -0.001171
								CHANNELS 3 Zrotation Yrotation Xrotation
								End Site
								{
									OFFSET 0.000000 0.000000 0.000000
								}
							}
						}
					}
				}
				JOINT RightShoulder
				{
					OFFSET -0.081759 0.118833 -0.038615
					CHANNELS 3 Zrotation Yrotation Xrotation
					JOINT RightArm
					{
						OFFSET -0.096012 0.032551 -0.009143
						CHANNELS 3 Zrotation Yrotation Xrotation
						JOINT RightForeArm
						{
							OFFSET -0.253742 -0.013329 -0.021401
							CHANNELS 3 Zrotation Yrotation Xrotation
							JOINT RightHand
							{
								OFFSET -0.255298 0.007772 -0.005559
								CHANNELS 3 Zrotation Yrotation Xrotation
								End Site
								{
									OFFSET 0.000000 0.000000 0.000000
								}
							}
						}
					}
				}
			}
		}
	}
}
MOTION
Frames: 6
Frame Time: 0.050000
0.019897 0.954682 -0.067284 1.381976 -5.151562 11.677146 5.882950 -0.523066 -9.150120 -2.366145 0.299316 -1.983127 2.825246 8.447245 11.256563 0.000000 0.000000 0.000000 -4.669638 1.179084 -14.147420 -8.409687 0.529457 -2.406618 3.029549 -2.399692 17.582076 0.000000 0.000000 0.000000 6.005411 -0.448287 1.787622 3.180704 -1.514298 1.934088 -11.386851 1.795932 1.708726 17.494257 -11.540685 -7.681055 0.000000 0.000000 0.000000 9.203212 -34.818212 10.178602 -11.013107 -55.358772 1.393465 20.029211 -29.438053 -4.114997 0.000000 0.000000 0.000000 -11.961991 20.459046 5.902942 12.620266 60.559538 3.330725 -19.599288 35.116100 -4.523197 0.000000 0.000000 0.000000 
0.019872 0.954670 -0.068056 1.241043 -5.369221 11.756021 5.776100 -0.528286 -9.214248 -1.946890 0.258458 -2.005380 2.955271 8.643599 11.277625 0.000000 0.000000 0.000000 -4.425730 1.192433 -14.065216 -8.575134 0.486791 -2.875273 3.201932 -2.228510 17.776928 0.000000 0.000000 0.000000 5.834810 -0.464400 2.062060 3.086639 -1.459713 1.788111 -11.375337 1.857503 1.744061 17.600264 -11.663923 -7.539033 0.000000 0.000000 0.000000 9.854578 -34.015411 9.804239 -10.538791 -55.670343 1.197942 19.952398 -28.777969 -3.994707 0.000000 0.000000 0.000000 -12.621376 20.568467 5.855340 11.589311 61.792949 2.890022 -19.518231 33.752545 -4.307635 0.000000 0.000000 0.000000 
0.019307 0.954624 -0.068870 1.145078 -5.557722 11.838825 5.917437 -0.519203 -9.233134 -1.973424 0.263832 -2.134567 3.047996 8.790940 11.359397 0.000000 0.000000 0.000000 -4.296414 1.197325 -13.970145 -8.562358 0.428065 -3.365224 3.342272 -2.085089 17.924931 0.000000 0.000000 0.000000 5.613544 -0.467388 2.232211 2.840471 -1.334338 1.641363 -11.203088 2.094056 1.855868 17.448319 -11.728812 -7.008938 0.000000 0.000000 0.000000 10.095061 -33.778442 9.682489 -10.226145 -55.400521 1.019600 20.079175 -28.890166 -4.048440 0.000000 0.000000 0.000000 -13.183483 20.559364 5.778316 10.997220 62.835981 2.681282 -19.856355 32.895918 -4.274337 0.000000 0.000000 0.000000 
0.018018 0.954514 -0.069722 0.842721 -5.734129 12.037606 6.208039 -0.504229 -9.298674 -1.778826 0.248895 -2.347538 3.162734 8.973384 11.447230 0.000000 0.000000 0.000000 -3.854697 1.237930 -14.109906 -8.620336 0.400489 -3.624794 3.477634 -1.936622 18.026600 0.000000 0.000000 0.000000 5.351586 -0.455689 2.250548 2.824085 -1.319594 1.547769 -11.310496 2.198471 1.981229 17.503700 -11.904673 -6.604714 0.000000 0.000000 0.000000 10.819680 -32.998168 9.310942 -10.127747 -55.346490 0.955135 20.472493 -28.980385 -4.167100 0.000000 0.000000 0.000000 -13.581855 20.748122 5.773114 9.798473 63.874991 2.092783 -20.091922 32.127287 -4.225617 0.000000 0.000000 0.000000 
0.016216 0.954416 -0.070632 0.514041 -5.840133 12.016777 6.746616 -0.469550 -9.269765 -1.898858 0.260607 -2.320963 3.240634 9.092381 11.471270 0.000000 0.000000 0.000000 -3.586559 1.250563 -14.052600 -8.236264 0.356785 -3.775731 3.553888 -1.823736 18.013522 0.000000 0.000000 0.000000 4.979652 -0.431490 2.255737 2.623858 -1.231817 1.789840 -11.169422 2.314588 1.622426 17.148107 -11.795422 -6.026616 0.000000 0.000000 0.000000 10.709501 -33.013921 9.351901 -10.277280 -54.832483 0.999945 20.494196 -29.432296 -4.246506 0.000000 0.000000 0.000000 -13.366845 21.095489 5.891929 10.361790 64.567202 2.509193 -20.268080 31.765865 -4.215706 0.000000 0.000000 0.000000 
0.014356 0.954246 -0.071494 0.216361 -5.753721 12.040511 7.341848 -0.434644 -9.191612 -2.125322 0.285857 -2.529325 3.212081 9.057569 11.517706 0.000000 0.000000 0.000000 -3.166394 1.276800 -14.092850 -8.169745 0.355175 -3.756222 3.527959 -1.836644 17.959443 0.000000 0.000000 0.000000 4.648926 -0.435478 2.572257 2.590292 -1.210179 1.573457 -11.470323 2.440156 1.811275 17.216381 -11.855616 -6.027701 0.000000 0.000000 0.000000 11.018457 -32.604709 9.177625 -10.473946 -55.062599 1.043583 21.123335 -29.526296 -4.436584 0.000000 0.000000 0.000000 -12.873733 21.235680 5.976745 10.952437 65.173789 2.951147 -20.633077 31.881560 -4.320109 0.000000 0.000000 0.000000 
